<svg width="30" height="30" viewBox="0 0 30 30" fill="none" xmlns="http://www.w3.org/2000/svg">
<path d="M15 27.5C21.9036 27.5 27.5 21.9036 27.5 15C27.5 8.09644 21.9036 2.5 15 2.5C8.09644 2.5 2.5 8.09644 2.5 15C2.5 21.9036 8.09644 27.5 15 27.5Z" stroke="#F6D413" stroke-width="2"/>
<path d="M15 22.5C19.1421 22.5 22.5 19.1421 22.5 15C22.5 10.8579 19.1421 7.5 15 7.5C10.8579 7.5 7.5 10.8579 7.5 15C7.5 19.1421 10.8579 22.5 15 22.5Z" stroke="#F6D413" stroke-width="2"/>
<path d="M15 17.5C16.3807 17.5 17.5 16.3807 17.5 15C17.5 13.6193 16.3807 12.5 15 12.5C13.6193 12.5 12.5 13.6193 12.5 15C12.5 16.3807 13.6193 17.5 15 17.5Z" stroke="#F6D413" stroke-width="1.5"/>
<path d="M7.5 15H12.5M17.5 15H22.5M11.25 21.495L13.75 17.165M16.25 12.835L18.75 8.505M18.75 21.495L16.25 17.165M13.75 12.835L11.25 8.505" stroke="#F6D413" stroke-width="2" stroke-linecap="round"/>
</svg>
