<svg width="30" height="30" viewBox="0 0 30 30" fill="none" xmlns="http://www.w3.org/2000/svg">
<path d="M8.125 15C7.62772 15 7.15081 15.1975 6.79917 15.5492C6.44754 15.9008 6.25 16.3777 6.25 16.875C6.25 17.3723 6.44754 17.8492 6.79917 18.2008C7.15081 18.5525 7.62772 18.75 8.125 18.75C8.62228 18.75 9.09919 18.5525 9.45083 18.2008C9.80246 17.8492 10 17.3723 10 16.875C10 16.3777 9.80246 15.9008 9.45083 15.5492C9.09919 15.1975 8.62228 15 8.125 15ZM21.875 15C21.3777 15 20.9008 15.1975 20.5492 15.5492C20.1975 15.9008 20 16.3777 20 16.875C20 17.3723 20.1975 17.8492 20.5492 18.2008C20.9008 18.5525 21.3777 18.75 21.875 18.75C22.3723 18.75 22.8492 18.5525 23.2008 18.2008C23.5525 17.8492 23.75 17.3723 23.75 16.875C23.75 16.3777 23.5525 15.9008 23.2008 15.5492C22.8492 15.1975 22.3723 15 21.875 15Z" fill="#F6D413"/>
<path d="M25.9625 11.45L24.25 6.32498C24.0023 5.57678 23.5243 4.92606 22.8845 4.46583C22.2446 4.0056 21.4757 3.75942 20.6875 3.76248H9.30005C8.51235 3.76133 7.74429 4.00825 7.10483 4.46821C6.46537 4.92817 5.98699 5.57782 5.73755 6.32498L4.02505 11.45C3.12505 11.825 2.48755 12.725 2.48755 13.75V20C2.48755 20.925 3.00005 21.725 3.73755 22.15V25C3.73755 25.6875 4.30005 26.25 4.98755 26.25H6.23755C6.92505 26.25 7.48755 25.6875 7.48755 25V22.5H22.4875V25C22.4875 25.6875 23.05 26.25 23.7375 26.25H24.9875C25.675 26.25 26.2375 25.6875 26.2375 25V22.15C26.6154 21.9318 26.9296 21.6186 27.1489 21.2414C27.3682 20.8643 27.4849 20.4363 27.4875 20V13.75C27.4875 12.7125 26.85 11.825 25.9501 11.45H25.9625ZM9.30005 6.24998H20.7C20.9621 6.2493 21.2177 6.331 21.4308 6.48353C21.6439 6.63606 21.8037 6.8517 21.8876 7.09998L23.2751 11.25H6.73755L8.12505 7.09998C8.20891 6.8517 8.36867 6.63606 8.58176 6.48353C8.79485 6.331 9.05049 6.2493 9.31255 6.24998H9.30005ZM5.00005 20V13.75H25V20H5.00005Z" fill="#F6D413"/>
</svg>
