<svg width="30" height="30" viewBox="0 0 30 30" fill="none" xmlns="http://www.w3.org/2000/svg">
<path d="M11.9422 2.50879L13.027 3.7104C14.2163 5.02718 16.1465 5.02397 17.332 3.7104L18.3499 2.58325C19.5832 2.91574 20.7598 3.43091 21.8406 4.11165L21.7672 5.54736C21.6766 7.3195 23.0443 8.68182 24.8111 8.59182L26.1102 8.5254C26.7793 9.6714 27.2662 10.9145 27.5534 12.21L26.6481 13.027C25.3318 14.2163 25.3356 16.1465 26.6481 17.332L27.4843 18.0863C27.1581 19.4082 26.6232 20.6695 25.8997 21.8229L24.8111 21.7672C23.0395 21.6766 21.6772 23.0443 21.7672 24.8111L21.8229 25.8997C20.6695 26.6232 19.4082 27.1581 18.0863 27.4843L17.332 26.6486C16.1427 25.3318 14.2125 25.335 13.027 26.6486L12.21 27.554C10.9144 27.2666 9.67136 26.7795 8.5254 26.1102L8.59182 24.8111C8.68236 23.0395 7.31468 21.6772 5.5479 21.7672L4.11218 21.8406C3.43121 20.7596 2.91586 19.5828 2.58325 18.3493L3.7104 17.3315C5.02718 16.1433 5.02397 14.2125 3.7104 13.027L2.50879 11.9422C2.8035 10.7358 3.27215 9.57865 3.90004 8.50718L5.5479 8.59129C7.3195 8.68182 8.68182 7.31415 8.59182 5.54736L8.50718 3.90004C9.57832 3.27225 10.7351 2.80359 11.9411 2.50879M11.1033 4.52682C10.9117 4.59808 10.7222 4.67453 10.5349 4.75611L10.5488 5.03093C10.7106 8.19593 8.19861 10.7106 5.03093 10.5488L4.75611 10.5349C4.67468 10.7224 4.59825 10.9116 4.52682 11.1027L4.72665 11.2838C7.07897 13.4074 7.08111 16.9613 4.72665 19.087L4.6345 19.1706C4.72379 19.3924 4.82022 19.6111 4.92379 19.8268L5.03093 19.8215C8.16486 19.6613 10.6618 22.1234 10.5531 25.2483C10.8174 25.3629 11.0861 25.4672 11.3593 25.5611C13.4336 23.3529 16.8 23.3175 18.915 25.4615C19.2204 25.3472 19.5202 25.2195 19.8145 25.0784C19.7995 22.124 22.1218 19.7995 25.0784 19.8145C25.2191 19.5202 25.3468 19.2202 25.4615 18.9145C23.3191 16.8016 23.3508 13.4352 25.5611 11.3593C25.4675 11.0861 25.3631 10.8174 25.2477 10.5531C22.1759 10.6602 19.74 8.24629 19.8156 5.17986L19.8268 4.92379C19.6112 4.82041 19.3923 4.72393 19.1706 4.6345L19.087 4.72665C16.9634 7.07897 13.409 7.08111 11.2838 4.72665L11.1033 4.52682ZM15 10.1786C15.6332 10.1786 16.2602 10.3033 16.8451 10.5456C17.4301 10.7879 17.9616 11.1431 18.4093 11.5908C18.857 12.0385 19.2122 12.57 19.4545 13.155C19.6968 13.7399 19.8215 14.3669 19.8215 15C19.8215 15.6332 19.6968 16.2602 19.4545 16.8451C19.2122 17.4301 18.857 17.9616 18.4093 18.4093C17.9616 18.857 17.4301 19.2122 16.8451 19.4545C16.2602 19.6968 15.6332 19.8215 15 19.8215C13.7213 19.8215 12.495 19.3135 11.5908 18.4093C10.6866 17.5051 10.1786 16.2788 10.1786 15C10.1786 13.7213 10.6866 12.495 11.5908 11.5908C12.495 10.6866 13.7213 10.1786 15 10.1786ZM15 11.7858C14.5779 11.7858 14.16 11.8689 13.77 12.0304C13.38 12.192 13.0257 12.4287 12.7272 12.7272C12.4287 13.0257 12.192 13.38 12.0304 13.77C11.8689 14.16 11.7858 14.5779 11.7858 15C11.7858 15.4221 11.8689 15.8401 12.0304 16.2301C12.192 16.6201 12.4287 16.9744 12.7272 17.2729C13.0257 17.5714 13.38 17.8081 13.77 17.9697C14.16 18.1312 14.5779 18.2143 15 18.2143C15.8525 18.2143 16.6701 17.8757 17.2729 17.2729C17.8757 16.6701 18.2143 15.8525 18.2143 15C18.2143 14.1476 17.8757 13.33 17.2729 12.7272C16.6701 12.1244 15.8525 11.7858 15 11.7858Z" fill="#F6D413"/>
</svg>
