<svg width="30" height="30" viewBox="0 0 30 30" fill="none" xmlns="http://www.w3.org/2000/svg">
<path d="M15 7.5C20.5228 7.5 25 6.38071 25 5C25 3.61929 20.5228 2.5 15 2.5C9.47715 2.5 5 3.61929 5 5C5 6.38071 9.47715 7.5 15 7.5Z" stroke="#F6D413" stroke-width="2"/>
<path d="M15 15.625C15.4973 15.625 15.9742 15.4275 16.3258 15.0758C16.6775 14.7242 16.875 14.2473 16.875 13.75C16.875 12.5 15 10.625 15 10.625C15 10.625 13.125 12.5 13.125 13.75C13.125 14.2473 13.3225 14.7242 13.6742 15.0758C14.0258 15.4275 14.5027 15.625 15 15.625Z" stroke="#F6D413" stroke-width="1.5" stroke-linecap="round" stroke-linejoin="round"/>
<path d="M23.75 6.25V13.1837C24.5463 13.7212 25 14.3412 25 15C25 17.0712 20.5225 18.75 15 18.75C9.4775 18.75 5 17.0712 5 15C5 14.3412 5.45375 13.7212 6.25 13.1837V6.25" stroke="#F6D413" stroke-width="2" stroke-linecap="round" stroke-linejoin="round"/>
<path d="M23.75 16.875V21.9338C24.5463 22.4713 25 23.0912 25 23.75C25 25.8212 20.5225 27.5 15 27.5C9.4775 27.5 5 25.8212 5 23.75C5 23.0912 5.45375 22.4713 6.25 21.9338V16.875" stroke="#F6D413" stroke-width="2" stroke-linecap="round" stroke-linejoin="round"/>
</svg>
