<svg width="30" height="30" viewBox="0 0 30 30" fill="none" xmlns="http://www.w3.org/2000/svg">
<path d="M2.5 6.25C2.5 5.58696 2.76339 4.95107 3.23223 4.48223C3.70107 4.01339 4.33696 3.75 5 3.75H25C25.663 3.75 26.2989 4.01339 26.7678 4.48223C27.2366 4.95107 27.5 5.58696 27.5 6.25V20C27.5 20.663 27.2366 21.2989 26.7678 21.7678C26.2989 22.2366 25.663 22.5 25 22.5H16.25V25H20C20.3315 25 20.6495 25.1317 20.8839 25.3661C21.1183 25.6005 21.25 25.9185 21.25 26.25C21.25 26.5815 21.1183 26.8995 20.8839 27.1339C20.6495 27.3683 20.3315 27.5 20 27.5H10C9.66848 27.5 9.35054 27.3683 9.11612 27.1339C8.8817 26.8995 8.75 26.5815 8.75 26.25C8.75 25.9185 8.8817 25.6005 9.11612 25.3661C9.35054 25.1317 9.66848 25 10 25H13.75V22.5H5C4.33696 22.5 3.70107 22.2366 3.23223 21.7678C2.76339 21.2989 2.5 20.663 2.5 20V6.25ZM25 20V6.25H5V20H25Z" fill="#F6D413"/>
</svg>
