<svg width="42" height="42" viewBox="0 0 42 42" fill="none" xmlns="http://www.w3.org/2000/svg">
<path d="M19.7715 3.84126C20.4621 3.58287 21.2166 3.54919 21.9275 3.74501L22.2285 3.84126L34.4785 8.43501C35.0996 8.66792 35.6418 9.07254 36.0418 9.60174C36.4418 10.1309 36.6831 10.7629 36.7378 11.424L36.75 11.7128V21.098C36.7499 23.9337 35.9843 26.7169 34.5338 29.1536C33.0834 31.5903 31.0019 33.5902 28.5093 34.9423L28.0437 35.1855L22.1742 38.1203C21.8511 38.2816 21.4981 38.3745 21.1373 38.3932C20.7766 38.4119 20.4159 38.3559 20.0777 38.2288L19.8258 38.1203L13.9563 35.1855C11.4198 33.9173 9.27286 31.9877 7.74201 29.6006C6.21116 27.2134 5.35322 24.4573 5.25875 21.623L5.25 21.098V11.7128C5.25001 11.0497 5.43835 10.4004 5.79308 9.84021C6.14782 9.28006 6.65437 8.8322 7.25375 8.54876L7.5215 8.43501L19.7715 3.84126ZM21 7.11901L8.75 11.7128V21.098C8.75004 23.2943 9.34054 25.4501 10.4597 27.3399C11.5788 29.2296 13.1854 30.7837 15.1112 31.8395L15.5225 32.0548L21 34.7935L26.4775 32.0548C28.4423 31.0726 30.1068 29.5801 31.2968 27.7338C32.4867 25.8874 33.1583 23.755 33.2413 21.56L33.25 21.098V11.7128L21 7.11901ZM27.0077 15.1008C27.3227 14.7869 27.7453 14.6047 28.1897 14.5911C28.6341 14.5775 29.067 14.7336 29.4005 15.0277C29.734 15.3218 29.943 15.7317 29.9852 16.1743C30.0274 16.617 29.8995 17.059 29.6275 17.4108L29.4823 17.5753L20.3228 26.7365C19.9891 27.0701 19.5446 27.2696 19.0736 27.297C18.6025 27.3244 18.1379 27.1779 17.7677 26.8853L17.5998 26.7365L13.3927 22.5295C13.0756 22.2153 12.8904 21.7918 12.8753 21.3455C12.8602 20.8993 13.0161 20.4642 13.3113 20.1292C13.6065 19.7943 14.0185 19.5848 14.4631 19.5436C14.9077 19.5025 15.3511 19.6329 15.7027 19.908L15.8673 20.0533L18.9613 23.1473L27.0077 15.1008Z" fill="#F6D413"/>
</svg>
