<svg width="42" height="42" viewBox="0 0 42 42" fill="none" xmlns="http://www.w3.org/2000/svg">
<path fill-rule="evenodd" clip-rule="evenodd" d="M26.25 3.5C26.7141 3.5 27.1592 3.68437 27.4874 4.01256C27.8156 4.34075 28 4.78587 28 5.25V7H29.75C31.1424 7 32.4777 7.55312 33.4623 8.53769C34.4469 9.52226 35 10.8576 35 12.25V14H36.75C37.2141 14 37.6592 14.1844 37.9874 14.5126C38.3156 14.8408 38.5 15.2859 38.5 15.75C38.5 16.2141 38.3156 16.6592 37.9874 16.9874C37.6592 17.3156 37.2141 17.5 36.75 17.5H35V24.5H36.75C37.2141 24.5 37.6592 24.6844 37.9874 25.0126C38.3156 25.3408 38.5 25.7859 38.5 26.25C38.5 26.7141 38.3156 27.1592 37.9874 27.4874C37.6592 27.8156 37.2141 28 36.75 28H35V29.75C35 31.1424 34.4469 32.4777 33.4623 33.4623C32.4777 34.4469 31.1424 35 29.75 35H28V36.75C28 37.2141 27.8156 37.6592 27.4874 37.9874C27.1592 38.3156 26.7141 38.5 26.25 38.5C25.7859 38.5 25.3408 38.3156 25.0126 37.9874C24.6844 37.6592 24.5 37.2141 24.5 36.75V35H17.5V36.75C17.5 37.2141 17.3156 37.6592 16.9874 37.9874C16.6592 38.3156 16.2141 38.5 15.75 38.5C15.2859 38.5 14.8408 38.3156 14.5126 37.9874C14.1844 37.6592 14 37.2141 14 36.75V35H12.25C10.8576 35 9.52226 34.4469 8.53769 33.4623C7.55312 32.4777 7 31.1424 7 29.75V28H5.25C4.78587 28 4.34075 27.8156 4.01256 27.4874C3.68437 27.1592 3.5 26.7141 3.5 26.25C3.5 25.7859 3.68437 25.3408 4.01256 25.0126C4.34075 24.6844 4.78587 24.5 5.25 24.5H7V17.5H5.25C4.78587 17.5 4.34075 17.3156 4.01256 16.9874C3.68437 16.6592 3.5 16.2141 3.5 15.75C3.5 15.2859 3.68437 14.8408 4.01256 14.5126C4.34075 14.1844 4.78587 14 5.25 14H7V12.25C7 10.8576 7.55312 9.52226 8.53769 8.53769C9.52226 7.55312 10.8576 7 12.25 7H14V5.25C14 4.78587 14.1844 4.34075 14.5126 4.01256C14.8408 3.68437 15.2859 3.5 15.75 3.5C16.2141 3.5 16.6592 3.68437 16.9874 4.01256C17.3156 4.34075 17.5 4.78587 17.5 5.25V7H24.5V5.25C24.5 4.78587 24.6844 4.34075 25.0126 4.01256C25.3408 3.68437 25.7859 3.5 26.25 3.5ZM29.75 10.5H12.25C11.7859 10.5 11.3408 10.6844 11.0126 11.0126C10.6844 11.3408 10.5 11.7859 10.5 12.25V29.75C10.5 30.2141 10.6844 30.6593 11.0126 30.9874C11.3408 31.3156 11.7859 31.5 12.25 31.5H29.75C30.2141 31.5 30.6593 31.3156 30.9874 30.9874C31.3156 30.6593 31.5 30.2141 31.5 29.75V12.25C31.5 11.7859 31.3156 11.3408 30.9874 11.0126C30.6593 10.6844 30.2141 10.5 29.75 10.5ZM24.5 14C25.383 13.9997 26.2335 14.3332 26.881 14.9336C27.5284 15.534 27.925 16.357 27.9912 17.2375L28 17.5V24.5C28.0003 25.383 27.6668 26.2335 27.0664 26.881C26.466 27.5284 25.643 27.925 24.7625 27.9912L24.5 28H17.5C16.617 28.0003 15.7665 27.6668 15.119 27.0664C14.4716 26.466 14.075 25.643 14.0087 24.7625L14 24.5V17.5C13.9997 16.617 14.3332 15.7665 14.9336 15.119C15.534 14.4716 16.357 14.075 17.2375 14.0087L17.5 14H24.5ZM24.5 17.5H17.5V24.5H24.5V17.5Z" fill="#F6D413"/>
</svg>
