<svg width="42" height="42" viewBox="0 0 42 42" fill="none" xmlns="http://www.w3.org/2000/svg">
<path d="M21 28C27.7655 28 33.25 22.5155 33.25 15.75C33.25 8.98451 27.7655 3.5 21 3.5C14.2345 3.5 8.75 8.98451 8.75 15.75C8.75 22.5155 14.2345 28 21 28Z" stroke="#F6D413" stroke-width="3"/>
<path d="M12.8642 26.25L11.7495 30.3152C10.6505 34.3262 10.101 36.3318 10.8342 37.429C11.0915 37.814 11.4362 38.122 11.837 38.3267C12.978 38.9077 14.742 37.989 18.2682 36.1515C19.4407 35.539 20.0287 35.2345 20.6517 35.168C20.8833 35.1448 21.1167 35.1448 21.3482 35.168C21.9712 35.2345 22.5575 35.5408 23.7317 36.1515C27.258 37.989 29.022 38.9077 30.163 38.3267C30.5637 38.122 30.9085 37.814 31.1657 37.429C31.9007 36.3318 31.3495 34.3262 30.2505 30.3152L29.1357 26.25" stroke="#F6D413" stroke-width="3" stroke-linecap="round"/>
</svg>
