<svg width="42" height="42" viewBox="0 0 42 42" fill="none" xmlns="http://www.w3.org/2000/svg">
<path fill-rule="evenodd" clip-rule="evenodd" d="M10.0327 3.57525C12.1625 1.45775 15.6695 1.834 17.4527 4.2175L19.6612 7.1645C21.1137 9.1035 20.9842 11.8125 19.2605 13.5258L18.844 13.9423C18.7968 14.1171 18.792 14.3007 18.83 14.4778C18.9402 15.1918 19.537 16.7038 22.036 19.1888C24.535 21.6738 26.0575 22.2688 26.782 22.3808C26.9645 22.4175 27.1531 22.4121 27.3332 22.365L28.0472 21.6545C29.5802 20.132 31.9322 19.8468 33.8292 20.8775L37.1717 22.6975C40.0365 24.2515 40.7592 28.1435 38.4142 30.4763L35.9275 32.9473C35.1435 33.726 34.09 34.3753 32.8055 34.496C29.638 34.7918 22.2582 34.4138 14.5005 26.7015C7.26074 19.502 5.87124 13.223 5.69449 10.129C5.60699 8.5645 6.34549 7.2415 7.28699 6.307L10.0327 3.57525ZM15.3527 5.79075C14.4655 4.606 12.8135 4.5115 11.8825 5.43725L9.13499 8.16725C8.55749 8.74125 8.28099 9.37475 8.31599 9.98025C8.45599 12.439 9.57599 18.1038 16.352 24.8413C23.4605 31.9078 30.0247 32.1195 32.5622 31.8815C33.0802 31.8343 33.5947 31.5648 34.076 31.087L36.561 28.6143C37.5725 27.6098 37.3502 25.7793 35.9187 25.0023L32.5762 23.184C31.6522 22.6835 30.5707 22.848 29.8987 23.5165L29.1025 24.3093L28.175 23.3783C29.1025 24.3093 29.1007 24.311 29.099 24.311L29.0972 24.3145L29.092 24.3198L29.0797 24.3303L29.0535 24.3548C28.9796 24.4233 28.9 24.4854 28.8155 24.5403C28.6755 24.633 28.49 24.7363 28.2572 24.822C27.7847 24.9988 27.1582 25.0933 26.3847 24.9743C24.8675 24.7415 22.8567 23.7073 20.1845 21.0508C17.514 18.3943 16.471 16.3958 16.2365 14.8803C16.1157 14.1068 16.212 13.4803 16.3905 13.0078C16.4887 12.7419 16.6294 12.4937 16.807 12.2728L16.863 12.2115L16.8875 12.1853L16.898 12.1748L16.9032 12.1695L16.9067 12.166L17.4107 11.6655C18.1597 10.9183 18.2647 9.681 17.5595 8.73775L15.3527 5.79075Z" fill="#F6D413"/>
</svg>
